<svg width="108" height="108" viewBox="0 0 108 108" fill="none" xmlns="http://www.w3.org/2000/svg">
<path d="M0 54C0 29.5412 0 17.3118 7.12202 9.3423C7.82 8.56126 8.56126 7.82 9.3423 7.12202C17.3118 0 29.5412 0 54 0V0C78.4588 0 90.6882 0 98.6577 7.12202C99.4387 7.82 100.18 8.56126 100.878 9.3423C108 17.3118 108 29.5412 108 54V54C108 78.4588 108 90.6882 100.878 98.6577C100.18 99.4387 99.4387 100.18 98.6577 100.878C90.6882 108 78.4588 108 54 108V108C29.5412 108 17.3118 108 9.3423 100.878C8.56126 100.18 7.82 99.4387 7.12202 98.6577C0 90.6882 0 78.4588 0 54V54Z" fill="white"/>
<path fill-rule="evenodd" clip-rule="evenodd" d="M26.5542 21.8514V62.0401H84.3255V77.4458C84.3255 78.4672 83.9197 79.4468 83.1974 80.1691C82.4752 80.8914 81.4955 81.2972 80.4741 81.2972C79.4526 81.2972 78.473 80.8914 77.7507 80.1691C77.0284 79.4468 76.6226 78.4672 76.6226 77.4458V69.7429H15V77.4458C15 80.5101 16.2173 83.449 18.3842 85.6158C20.551 87.7827 23.4899 89 26.5542 89H80.4741C83.5384 89 86.4773 87.7827 88.6441 85.6158C90.811 83.449 92.0283 80.5101 92.0283 77.4458V56.8491H35.0465C34.6957 56.8491 34.3927 56.719 34.1375 56.4587C33.8823 56.1984 33.7548 55.8894 33.7548 55.5315V24.0063C33.7548 23.6485 33.8823 23.3394 34.1375 23.0791C34.3927 22.8189 34.6957 22.6887 35.0465 22.6887H92.0283V21.8514C92.0283 20.83 91.6225 19.8503 90.9003 19.1281C90.178 18.4058 89.1983 18 88.1769 18H30.4057C29.3842 18 28.4046 18.4058 27.6823 19.1281C26.96 19.8503 26.5542 20.83 26.5542 21.8514ZM92.0283 32.2048H60.5472V35.2793H92.0283V32.2048ZM92.0283 44.2586H60.5472V47.333H92.0283V44.2586Z" fill="#67BF7B"/>
</svg>
